<?xml version="1.0" encoding="utf-8"?>
<!-- Generator: Adobe Illustrator 30.5.1, SVG Export Plug-In . SVG Version: 9.03 Build 0)  -->
<svg version="1.1" xmlns="http://www.w3.org/2000/svg" x="0px" y="0px"
	 viewBox="230 165 250 70" xml:space="preserve">
<g>
	<path style="fill:#C9A84C;" d="M234.554,227.546v-57.212h18.062c3.922,0,7.274,0.601,10.053,1.799
		c2.778,1.199,4.931,2.956,6.457,5.272c1.525,2.316,2.289,5.137,2.289,8.459c0,2.778-0.627,5.218-1.88,7.315
		c-1.254,2.097-3.025,3.8-5.313,5.107c2.832,1.363,5.026,3.188,6.579,5.477c1.553,2.288,2.33,5.014,2.33,8.173
		c0,3.324-0.736,6.144-2.207,8.459c-1.471,2.316-3.555,4.087-6.252,5.313s-5.926,1.839-9.685,1.839H234.554z M241.419,195.425
		h12.914c3.159,0,5.639-0.844,7.437-2.533c1.798-1.688,2.697-4.032,2.697-7.029c0-3.106-1.05-5.488-3.147-7.151
		c-2.098-1.662-5.055-2.493-8.869-2.493h-11.033V195.425z M241.419,221.335h13.24c3.596,0,6.417-0.859,8.459-2.575
		c2.044-1.715,3.065-4.072,3.065-7.069c0-3.214-1.172-5.735-3.514-7.56c-2.344-1.825-5.612-2.737-9.807-2.737h-11.443V221.335z"/>
	<path style="fill:#C9A84C;" d="M298.753,227.546v-57.212h6.62v26.4l25.419-26.4h8.663l-24.601,25.746l25.663,31.466h-8.418
		l-21.74-26.808l-4.986,5.231v21.577H298.753z"/>
	<path style="fill:#C9A84C;" d="M421.286,227.546v-57.212h7.193l19.779,29.26l19.778-29.26h7.111v57.212h-6.866v-46.097
		l-20.023,29.833l-20.024-29.668v45.932H421.286z"/>
	<polygon style="fill:#C9A84C;" points="370.882,198.699 363.313,198.699 384.174,227.55 391.777,227.55 	"/>
	<path style="fill:#C9A84C;" d="M393.049,178.672c-1.611-2.621-3.841-4.662-6.703-6.132c-2.861-1.471-6.142-2.201-9.844-2.201
		h-26.177l4.557,6.292h21.449c3.601,0,6.522,1.02,8.783,3.061c2.261,2.041,3.401,4.702,3.401,7.973c0,2.121-0.51,4.012-1.521,5.672
		c-1,1.671-2.321,2.971-3.961,3.931c-0.76,0.44-1.561,0.78-2.421,1.01l-0.691,0.093l3.852,5.309c3.481-1.31,6.302-3.361,8.453-6.172
		c2.151-2.801,3.231-6.092,3.231-9.844C395.46,184.284,394.659,181.283,393.049,178.672z"/>
</g>
</svg>
